<svg width="23" height="23" viewBox="0 0 23 23" fill="none" xmlns="http://www.w3.org/2000/svg">
<path d="M11.4282 2.21313C6.3072 2.21313 2.14087 6.37947 2.14087 11.5004C2.14087 16.6214 6.3072 20.7877 11.4282 20.7877C16.5491 20.7877 20.7155 16.6214 20.7155 11.5004C20.7155 6.37947 16.5491 2.21313 11.4282 2.21313ZM15.0002 12.2148H12.1426V15.0725C12.1426 15.2619 12.0673 15.4437 11.9333 15.5776C11.7993 15.7116 11.6176 15.7869 11.4282 15.7869C11.2387 15.7869 11.057 15.7116 10.923 15.5776C10.789 15.4437 10.7138 15.2619 10.7138 15.0725V12.2148H7.85613C7.66665 12.2148 7.48494 12.1396 7.35096 12.0056C7.21699 11.8716 7.14172 11.6899 7.14172 11.5004C7.14172 11.311 7.21699 11.1292 7.35096 10.9953C7.48494 10.8613 7.66665 10.786 7.85613 10.786H10.7138V7.92839C10.7138 7.73892 10.789 7.55721 10.923 7.42323C11.057 7.28925 11.2387 7.21399 11.4282 7.21399C11.6176 7.21399 11.7993 7.28925 11.9333 7.42323C12.0673 7.55721 12.1426 7.73892 12.1426 7.92839V10.786H15.0002C15.1897 10.786 15.3714 10.8613 15.5054 10.9953C15.6393 11.1292 15.7146 11.311 15.7146 11.5004C15.7146 11.6899 15.6393 11.8716 15.5054 12.0056C15.3714 12.1396 15.1897 12.2148 15.0002 12.2148Z" fill="white"/>
</svg>
