<svg width="20" height="20" viewBox="0 0 20 20" fill="none" xmlns="http://www.w3.org/2000/svg">
<path fill-rule="evenodd" clip-rule="evenodd" d="M5.87524 2.54186C6.9692 1.44789 8.45293 0.833313 10 0.833313C11.5471 0.833313 13.0309 1.44789 14.1248 2.54186C15.2188 3.63582 15.8334 5.11955 15.8334 6.66665C15.8334 9.46053 16.4309 11.1955 16.9816 12.2051C17.2581 12.712 17.5273 13.0445 17.7144 13.242C17.8081 13.3409 17.8817 13.4065 17.9261 13.4435C17.9483 13.4619 17.9632 13.4733 17.9696 13.4781C17.9706 13.4788 17.9714 13.4794 17.9719 13.4798C18.2707 13.685 18.4029 14.0604 18.2976 14.4081C18.1912 14.7596 17.8672 15 17.5 15H2.50002C2.1328 15 1.80886 14.7596 1.70245 14.4081C1.59716 14.0604 1.72936 13.685 2.0281 13.4798C2.02868 13.4794 2.02948 13.4788 2.03048 13.4781C2.0369 13.4733 2.05177 13.4619 2.07396 13.4435C2.11831 13.4065 2.19196 13.3409 2.28569 13.242C2.47271 13.0445 2.74195 12.712 3.01844 12.2051C3.56913 11.1955 4.16669 9.46053 4.16669 6.66665C4.16669 5.11955 4.78127 3.63582 5.87524 2.54186ZM2.03652 13.4741C2.03659 13.4741 2.03665 13.474 2.03672 13.474C2.03672 13.474 2.03671 13.474 2.03671 13.474L2.03652 13.4741ZM4.29113 13.3333H15.7089C15.6455 13.2294 15.5819 13.1195 15.5184 13.0032C14.8191 11.7211 14.1667 9.7061 14.1667 6.66665C14.1667 5.56158 13.7277 4.50177 12.9463 3.72037C12.1649 2.93897 11.1051 2.49998 10 2.49998C8.89496 2.49998 7.83515 2.93897 7.05375 3.72037C6.27234 4.50177 5.83336 5.56158 5.83336 6.66665C5.83336 9.7061 5.18091 11.7211 4.4816 13.0032C4.41819 13.1195 4.35453 13.2294 4.29113 13.3333Z" fill="#323F4B"/>
<path fill-rule="evenodd" clip-rule="evenodd" d="M8.14018 16.7791C8.53829 16.5482 9.04822 16.6837 9.27916 17.0818C9.35241 17.2081 9.45756 17.3129 9.58406 17.3858C9.71057 17.4587 9.854 17.497 9.99999 17.497C10.146 17.497 10.2894 17.4587 10.4159 17.3858C10.5424 17.3129 10.6476 17.2081 10.7208 17.0818C10.9518 16.6837 11.4617 16.5482 11.8598 16.7791C12.2579 17.0101 12.3934 17.52 12.1625 17.9181C11.9427 18.297 11.6273 18.6114 11.2478 18.83C10.8683 19.0486 10.438 19.1637 9.99999 19.1637C9.56202 19.1637 9.13173 19.0486 8.75221 18.83C8.37269 18.6114 8.05725 18.297 7.83749 17.9181C7.60656 17.52 7.74208 17.0101 8.14018 16.7791Z" fill="#323F4B"/>
</svg>
