<svg width="24" height="24" viewBox="0 0 24 24" fill="none" xmlns="http://www.w3.org/2000/svg">
<path d="M12 21.2873C17.129 21.2873 21.2873 17.129 21.2873 12C21.2873 6.87099 17.129 2.71269 12 2.71269C6.87102 2.71269 2.71272 6.87099 2.71272 12C2.71272 17.129 6.87102 21.2873 12 21.2873ZM7.92075 11.7924C7.98682 11.7257 8.06538 11.6728 8.15192 11.6365C8.23847 11.6003 8.3313 11.5814 8.42513 11.581C8.51897 11.5807 8.61195 11.5988 8.69878 11.6344C8.78561 11.6699 8.86458 11.7222 8.93119 11.7883L11.2856 14.1244V8.16004C11.2856 7.97057 11.3609 7.78886 11.4948 7.65488C11.6288 7.5209 11.8105 7.44564 12 7.44564C12.1895 7.44564 12.3712 7.5209 12.5052 7.65488C12.6391 7.78886 12.7144 7.97057 12.7144 8.16004V14.1244L15.0688 11.7883C15.2035 11.6549 15.3856 11.5804 15.5752 11.5812C15.7648 11.582 15.9463 11.6582 16.0797 11.7928C16.2132 11.9274 16.2877 12.1096 16.2868 12.2992C16.286 12.4887 16.2099 12.6702 16.0753 12.8037L12.5032 16.3485C12.3694 16.4813 12.1885 16.5558 12 16.5558C11.8115 16.5558 11.6306 16.4813 11.4968 16.3485L7.92477 12.8037C7.85801 12.7376 7.80495 12.659 7.76861 12.5724C7.73227 12.4857 7.71338 12.3928 7.71301 12.2989C7.71263 12.2049 7.73079 12.1118 7.76644 12.0249C7.80208 11.938 7.85452 11.859 7.92075 11.7924Z" fill="white"/>
</svg>
