<svg width="24" height="23" viewBox="0 0 24 23" fill="none" xmlns="http://www.w3.org/2000/svg">
<mask id="mask0_43_585" style="mask-type:alpha" maskUnits="userSpaceOnUse" x="2" y="1" width="20" height="21">
<path d="M8.04006 19.6982L17.5636 10.1747L13.0401 5.65116L3.51655 15.1747C3.38544 15.306 3.2923 15.4703 3.24702 15.6502L2.19147 21.0233L7.56353 19.9678C7.74389 19.9227 7.90889 19.8294 8.04006 19.6982ZM20.6381 7.10024C21.0223 6.71588 21.2382 6.19464 21.2382 5.65116C21.2382 5.10767 21.0223 4.58644 20.6381 4.20208L19.0127 2.57673C18.6284 2.19248 18.1071 1.97662 17.5636 1.97662C17.0201 1.97662 16.4989 2.19248 16.1145 2.57673L14.4892 4.20208L19.0127 8.72559L20.6381 7.10024Z" fill="#006FFD"/>
</mask>
<g mask="url(#mask0_43_585)">
<rect x="0.286804" y="0.0719604" width="22.856" height="22.856" fill="white"/>
</g>
</svg>
