<svg width="20" height="20" viewBox="0 0 20 20" fill="none" xmlns="http://www.w3.org/2000/svg">
<path d="M19 20H1V18.0952C1 16.8323 1.59263 15.6211 2.64752 14.7281C3.70242 13.835 5.13316 13.3333 6.625 13.3333H13.375C14.8668 13.3333 16.2976 13.835 17.3525 14.7281C18.4074 15.6211 19 16.8323 19 18.0952V20ZM10 11.4286C9.11358 11.4286 8.23583 11.2808 7.41689 10.9936C6.59794 10.7064 5.85382 10.2855 5.22703 9.7549C4.60023 9.22428 4.10303 8.59434 3.76381 7.90105C3.42459 7.20776 3.25 6.4647 3.25 5.71429C3.25 4.96388 3.42459 4.22081 3.76381 3.52752C4.10303 2.83423 4.60023 2.2043 5.22703 1.67368C5.85382 1.14306 6.59794 0.722144 7.41689 0.434974C8.23583 0.147804 9.11358 -1.1182e-08 10 0C11.7902 2.25831e-08 13.5071 0.602039 14.773 1.67368C16.0388 2.74531 16.75 4.19876 16.75 5.71429C16.75 7.22981 16.0388 8.68326 14.773 9.7549C13.5071 10.8265 11.7902 11.4286 10 11.4286Z" fill="#03053D"/>
</svg>
