<svg width="28" height="30" viewBox="0 0 28 30" fill="none" xmlns="http://www.w3.org/2000/svg">
<path d="M12.6448 10.0002V24.9995H10.1449V10.0002H12.6448Z" fill="#D84226"/>
<path d="M17.6446 10.0002V24.9995H15.1447V10.0002H17.6446Z" fill="#D84226"/>
<path fill-rule="evenodd" clip-rule="evenodd" d="M10.1449 0.000732422C8.76429 0.000732422 7.64505 1.11997 7.64505 2.50061V5.00049H0.145416V7.50037H2.6453V24.9995C2.6453 27.7608 4.88376 29.9993 7.64505 29.9993H20.7694C23.1855 29.9993 25.1442 28.0406 25.1442 25.6245V7.50037H27.6441V5.00049H20.1444V2.50061C20.1444 1.11997 19.0252 0.000732422 17.6446 0.000732422H10.1449ZM22.6443 7.50037H5.14517V24.9995C5.14517 26.3802 6.26441 27.4994 7.64505 27.4994H20.7694C21.8049 27.4994 22.6443 26.66 22.6443 25.6245V7.50037ZM17.6446 5.00049H10.1449V3.75055C10.1449 3.06023 10.7046 2.50061 11.3949 2.50061H16.3946C17.085 2.50061 17.6446 3.06023 17.6446 3.75055V5.00049Z" fill="#D84226"/>
</svg>
