<svg width="24" height="23" viewBox="0 0 24 23" fill="none" xmlns="http://www.w3.org/2000/svg">
<path d="M2.42174 0.153503C1.5604 0.383083 0.887642 1.07183 0.658291 1.94423C0.541068 2.38299 0.541068 20.6168 0.658291 21.0556C0.887642 21.9382 1.5655 22.6218 2.44213 22.8514C2.62561 22.8973 2.96199 22.9279 3.29327 22.9279H3.84371V18.7036C3.84371 14.1171 3.83862 14.2089 4.12913 13.6324C4.31261 13.2702 4.75602 12.8213 5.11279 12.6274C5.72439 12.3009 5.40839 12.3162 11.9984 12.3162C18.5884 12.3162 18.2724 12.3009 18.884 12.6274C19.2408 12.8213 19.6842 13.2702 19.8677 13.6324C20.1582 14.2089 20.1531 14.1171 20.1531 18.7036V22.9279H20.7035C21.0348 22.9279 21.3712 22.8973 21.5547 22.8514C22.4313 22.6218 23.1091 21.9382 23.3385 21.0556C23.4557 20.6168 23.4557 7.22969 23.3385 6.79094C23.2366 6.3879 23.0378 6.02057 22.783 5.73997C22.6606 5.61242 21.7025 4.45942 20.6525 3.18397C19.6026 1.90852 18.6445 0.775923 18.5221 0.663683C18.2622 0.429001 17.778 0.194317 17.406 0.122892C17.2531 0.0973835 16.8963 0.0718746 16.6058 0.0718746H16.0757V2.25544C16.0757 4.02577 16.0604 4.49513 15.9993 4.72981C15.7699 5.61242 15.0921 6.29606 14.2154 6.52565C13.772 6.63788 6.96798 6.64299 6.52966 6.52565C5.64794 6.29606 4.96498 5.61753 4.73563 4.74002C4.67447 4.49003 4.65918 4.05128 4.65918 2.25544V0.0718746L3.68062 0.0769768C2.99257 0.0769768 2.61541 0.102486 2.42174 0.153503Z" fill="white"/>
<path d="M6.30014 2.26067C6.31543 4.38302 6.32053 4.45444 6.42246 4.59219C6.47852 4.66872 6.59065 4.78096 6.6671 4.83708C6.80471 4.94421 6.85058 4.94421 10.3673 4.94421C13.884 4.94421 13.9299 4.94421 14.0675 4.83708C14.1439 4.78096 14.2561 4.66872 14.3121 4.59219C14.414 4.45444 14.4191 4.38302 14.4344 2.26067L14.4497 0.0719995H10.3673H6.28485L6.30014 2.26067Z" fill="white"/>
<path d="M5.95879 14.0205C5.62751 14.1685 5.47461 14.4491 5.47461 14.9235V15.2245H12.0035H18.5323L18.5119 14.847C18.4915 14.4389 18.4202 14.2858 18.1449 14.0817C18.0073 13.9746 17.9768 13.9746 12.0595 13.9644C7.182 13.9542 6.08621 13.9644 5.95879 14.0205Z" fill="white"/>
<path d="M5.47461 17.6728V18.4891H11.9984H18.5221V17.6728V16.8566H11.9984H5.47461V17.6728Z" fill="white"/>
<path d="M5.47473 21.5251V22.9281H11.9985H18.5222V21.5251V20.1221H11.9985H5.47473V21.5251Z" fill="white"/>
</svg>
