<svg width="24" height="24" viewBox="0 0 24 24" fill="none" xmlns="http://www.w3.org/2000/svg">
<path fill-rule="evenodd" clip-rule="evenodd" d="M2.48197 0.57196V12H4.38664V2.47663H13.91V8.19064H19.624V12H21.5287V4.3813L17.7193 0.57196H2.48197ZM19.624 6.28597V5.17024L16.9304 2.47663H15.8147V6.28597H19.624Z" fill="white"/>
<path d="M22.8604 20.6825C22.8604 21.2467 22.7216 21.7328 22.4438 22.1407C22.1704 22.5487 21.7754 22.8612 21.259 23.0782C20.7468 23.2952 20.1349 23.4037 19.4231 23.4037C19.0759 23.4037 18.7439 23.3842 18.4271 23.3451C18.1102 23.306 17.8108 23.2496 17.5287 23.1758C17.2509 23.0977 16.997 23.0044 16.767 22.8959V21.4246C17.1533 21.5939 17.5851 21.748 18.0625 21.8868C18.5399 22.0214 19.026 22.0887 19.5208 22.0887C19.9244 22.0887 20.2586 22.0366 20.5233 21.9324C20.7924 21.8239 20.9921 21.672 21.1223 21.4767C21.2525 21.2771 21.3176 21.0449 21.3176 20.7801C21.3176 20.498 21.2416 20.2593 21.0897 20.064C20.9378 19.8687 20.7078 19.6908 20.3996 19.5302C20.0958 19.3653 19.7139 19.1895 19.2539 19.0029C18.9414 18.877 18.6419 18.7338 18.3555 18.5732C18.0734 18.4126 17.8216 18.2238 17.6003 18.0068C17.3789 17.7898 17.2032 17.5338 17.073 17.2386C16.9471 16.9392 16.8842 16.5876 16.8842 16.184C16.8842 15.6458 17.0122 15.1858 17.2683 14.8039C17.5287 14.4219 17.8932 14.129 18.362 13.925C18.835 13.721 19.3862 13.619 20.0155 13.619C20.5146 13.619 20.9834 13.6711 21.4217 13.7753C21.8644 13.8794 22.2984 14.027 22.7237 14.2179L22.229 15.4744C21.8384 15.3138 21.4586 15.1858 21.0897 15.0903C20.7251 14.9948 20.3519 14.9471 19.97 14.9471C19.6401 14.9471 19.3602 14.997 19.1302 15.0968C18.9001 15.1966 18.7244 15.3377 18.6028 15.52C18.4857 15.6979 18.4271 15.9106 18.4271 16.158C18.4271 16.4357 18.4943 16.6701 18.6289 16.861C18.7678 17.0477 18.9804 17.2191 19.2669 17.3753C19.5577 17.5316 19.9309 17.7052 20.3866 17.8962C20.9118 18.1132 21.3566 18.341 21.7212 18.5797C22.0901 18.8184 22.3722 19.1049 22.5675 19.439C22.7628 19.7689 22.8604 20.1834 22.8604 20.6825Z" fill="white"/>
<path d="M10.1006 13.7524V23.2701H15.7058V21.9421H11.6631V13.7524H10.1006Z" fill="white"/>
<path d="M7.55055 23.2757H9.32781L6.13786 18.3866L9.09995 13.7579H7.42686L5.22644 17.3645L3.01301 13.7579H1.28783L4.23691 18.341L1.073 23.2757H2.74609L5.15483 19.3762L7.55055 23.2757Z" fill="white"/>
</svg>
